# xmcd
#
# Track frame offsets:
#	150
#	20978
#	38571
#	58721
#	79756
#	103524
#	125499
#	147226
#	173888
#	194622
#	217310
#	239599
#	260207
#	282533
#	301008
#	318375
#	339498
#
# Disc length: 4744
#
# Revision: 8
# Processed by: cddbd v1.5.1PL0 Copyright (c) Steve Scherf et al.
# Submitted via: CDex 1.51
# Normalized: r7:DSETVAR1
#
DISCID=0c128611
DTITLE=Various Artist - 蓝调经典精选disc2
DYEAR=2003
DGENRE=Blues
TTITLE0=Brandy - Another Day In Paradise
TTITLE1=Ashanti - Foolish
TTITLE2=Brian Mcknight - Back At One
TTITLE3=Boyzone - No Matter What
TTITLE4=Britney Spears - From The Bottom Of My Broken Heart
TTITLE5=Seal - Kiss From A Rose
TTITLE6=Aaliyah - Try Again
TTITLE7=Boyz II Men - End Of The Road
TTITLE8=Madonna - Take A Bow
TTITLE9=Babyface - Every Time I Close My Eyes
TTITLE10=Lauryn Hill - The Sweetest Thing
TTITLE11=Monica - Right Here Waiting
TTITLE12=Whitney Houston - Until You Come Back
TTITLE13=Destiny's Child - Survivor
TTITLE14=98 Deg - I Do (Cherish You)
TTITLE15=Boyz II Men and Mariah Carey - One Sweet Day
TTITLE16=Backstreet Boys - I Want It That Way
EXTD=YEAR: 2003
EXTT0=
EXTT1=
EXTT2=
EXTT3=
EXTT4=
EXTT5=
EXTT6=
EXTT7=
EXTT8=
EXTT9=
EXTT10=
EXTT11=
EXTT12=
EXTT13=
EXTT14=
EXTT15=
EXTT16=
PLAYORDER=
